<mxfile host="Electron" agent="Mozilla/5.0 (X11; Linux x86_64) AppleWebKit/537.36 (KHTML, like Gecko) draw.io/28.1.2 Chrome/138.0.7204.243 Electron/37.4.0 Safari/537.36" version="28.1.2">
  <diagram name="Seite-1" id="Ja2IVdMRkBDOTgbCthu4">
    <mxGraphModel dx="398" dy="473" grid="1" gridSize="10" guides="1" tooltips="1" connect="1" arrows="1" fold="1" page="1" pageScale="1" pageWidth="360" pageHeight="1200" math="0" shadow="0">
      <root>
        <mxCell id="0" />
        <mxCell id="1" parent="0" />
        <mxCell id="yHWT7IU4pxUufP5rQbJ7-15" style="edgeStyle=orthogonalEdgeStyle;rounded=0;orthogonalLoop=1;jettySize=auto;html=1;endArrow=blockThin;endFill=1;" edge="1" parent="1" source="yHWT7IU4pxUufP5rQbJ7-1" target="yHWT7IU4pxUufP5rQbJ7-2">
          <mxGeometry relative="1" as="geometry">
            <Array as="points">
              <mxPoint x="80" y="50" />
              <mxPoint x="80" y="50" />
            </Array>
          </mxGeometry>
        </mxCell>
        <mxCell id="yHWT7IU4pxUufP5rQbJ7-1" value="Eskalierendes Atemwegsmanagement" style="rounded=1;whiteSpace=wrap;html=1;fillColor=#000000;fontColor=#ffffff;strokeColor=none;fillStyle=auto;fontFamily=&quot;Roboto&quot;, &quot;Helvetica Neue&quot;, sans-serif; &quot;Helvetia Neue&quot;;glass=0;shadow=0;arcSize=50;fontStyle=1;fontSize=11;gradientColor=none;" vertex="1" parent="1">
          <mxGeometry width="360" height="40" as="geometry" />
        </mxCell>
        <mxCell id="yHWT7IU4pxUufP5rQbJ7-16" style="edgeStyle=orthogonalEdgeStyle;rounded=0;orthogonalLoop=1;jettySize=auto;html=1;endArrow=blockThin;endFill=1;" edge="1" parent="1" source="yHWT7IU4pxUufP5rQbJ7-2" target="yHWT7IU4pxUufP5rQbJ7-3">
          <mxGeometry relative="1" as="geometry" />
        </mxCell>
        <mxCell id="yHWT7IU4pxUufP5rQbJ7-46" value="Ja" style="edgeLabel;html=1;align=center;verticalAlign=middle;resizable=0;points=[];fontFamily=bahnschrift;fontSize=10;fontColor=default;labelBorderColor=none;labelBackgroundColor=default;fillColor=none;gradientColor=none;" vertex="1" connectable="0" parent="yHWT7IU4pxUufP5rQbJ7-16">
          <mxGeometry x="-0.05" y="-1" relative="1" as="geometry">
            <mxPoint x="-2" y="-2" as="offset" />
          </mxGeometry>
        </mxCell>
        <mxCell id="yHWT7IU4pxUufP5rQbJ7-17" value="" style="edgeStyle=orthogonalEdgeStyle;rounded=0;orthogonalLoop=1;jettySize=auto;html=1;endArrow=blockThin;endFill=1;" edge="1" parent="1" source="yHWT7IU4pxUufP5rQbJ7-2">
          <mxGeometry relative="1" as="geometry">
            <mxPoint x="80" y="140" as="targetPoint" />
          </mxGeometry>
        </mxCell>
        <mxCell id="yHWT7IU4pxUufP5rQbJ7-47" value="Nein" style="edgeLabel;html=1;align=center;verticalAlign=middle;resizable=0;points=[];fontFamily=bahnschrift;fontSize=10;fontColor=default;labelBorderColor=none;labelBackgroundColor=default;fillColor=none;gradientColor=none;" vertex="1" connectable="0" parent="yHWT7IU4pxUufP5rQbJ7-17">
          <mxGeometry x="-0.5062" y="-1" relative="1" as="geometry">
            <mxPoint y="-1" as="offset" />
          </mxGeometry>
        </mxCell>
        <UserObject label="Atemwegsverlegung?" id="yHWT7IU4pxUufP5rQbJ7-2">
          <mxCell style="shape=hexagon;perimeter=hexagonPerimeter2;whiteSpace=wrap;html=1;fixedSize=1;fontFamily=&quot;Roboto&quot;, &quot;Helvetica Neue&quot;, sans-serif;fontSize=10;fontStyle=0;fillColor=#f5f5f5;fontColor=#333333;strokeColor=#666666;" vertex="1" parent="1">
            <mxGeometry y="60" width="160" height="40" as="geometry" />
          </mxCell>
        </UserObject>
        <mxCell id="yHWT7IU4pxUufP5rQbJ7-19" style="edgeStyle=orthogonalEdgeStyle;rounded=0;orthogonalLoop=1;jettySize=auto;html=1;entryX=0.5;entryY=0;entryDx=0;entryDy=0;endArrow=block;endFill=1;" edge="1" parent="1" source="yHWT7IU4pxUufP5rQbJ7-3">
          <mxGeometry relative="1" as="geometry">
            <mxPoint x="80" y="140" as="targetPoint" />
            <Array as="points">
              <mxPoint x="280" y="120" />
              <mxPoint x="80" y="120" />
            </Array>
          </mxGeometry>
        </mxCell>
        <UserObject label="Fremdkörperentfernung" link="/tabs/lib/list/bpr-list/bpr-aproblem" id="yHWT7IU4pxUufP5rQbJ7-3">
          <mxCell style="shape=process;whiteSpace=wrap;html=1;backgroundOutline=1;size=0.0625;fillColor=#f8cecc;strokeColor=#b85450;fontSize=10;glass=0;rounded=0;fontFamily=&quot;Roboto&quot;, &quot;Helvetica Neue&quot;, sans-serif;fontStyle=1" vertex="1" parent="1">
            <mxGeometry x="200" y="60" width="160" height="40" as="geometry" />
          </mxCell>
        </UserObject>
        <UserObject label="Einfache Maßnahmen&lt;br&gt;erfolgreich?" link="/?action=basic-treatment" id="yHWT7IU4pxUufP5rQbJ7-45">
          <mxCell style="shape=hexagon;perimeter=hexagonPerimeter2;whiteSpace=wrap;fixedSize=1;fontFamily=&quot;Roboto&quot;, &quot;Helvetica Neue&quot;, sans-serif;fontSize=10;fontStyle=0;textShadow=0;labelBorderColor=none;html=1;horizontal=1;fillColor=#f5f5f5;fontColor=#333333;strokeColor=#666666;" vertex="1" parent="1">
            <mxGeometry y="140" width="160" height="40" as="geometry" />
          </mxCell>
        </UserObject>
        <mxCell id="yHWT7IU4pxUufP5rQbJ7-51" style="edgeStyle=orthogonalEdgeStyle;rounded=0;orthogonalLoop=1;jettySize=auto;html=1;endArrow=blockThin;endFill=1;" edge="1" parent="1">
          <mxGeometry relative="1" as="geometry">
            <mxPoint x="160" y="159.74" as="sourcePoint" />
            <mxPoint x="200" y="159.74" as="targetPoint" />
          </mxGeometry>
        </mxCell>
        <mxCell id="yHWT7IU4pxUufP5rQbJ7-52" value="Ja" style="edgeLabel;html=1;align=center;verticalAlign=middle;resizable=0;points=[];fontFamily=bahnschrift;fontSize=10;fontColor=default;labelBorderColor=none;labelBackgroundColor=default;fillColor=none;gradientColor=none;" vertex="1" connectable="0" parent="yHWT7IU4pxUufP5rQbJ7-51">
          <mxGeometry x="-0.05" y="-1" relative="1" as="geometry">
            <mxPoint x="-2" y="-2" as="offset" />
          </mxGeometry>
        </mxCell>
        <mxCell id="yHWT7IU4pxUufP5rQbJ7-53" value="Transport" style="rounded=1;whiteSpace=wrap;html=1;fillColor=#000000;fontColor=#ffffff;strokeColor=none;fillStyle=auto;fontFamily=&quot;Roboto&quot;, &quot;Helvetica Neue&quot;, sans-serif; &quot;Helvetia Neue&quot;;glass=0;shadow=0;arcSize=50;fontStyle=1;fontSize=11;gradientColor=none;" vertex="1" parent="1">
          <mxGeometry x="200" y="140" width="160" height="40" as="geometry" />
        </mxCell>
        <mxCell id="yHWT7IU4pxUufP5rQbJ7-54" value="" style="edgeStyle=orthogonalEdgeStyle;rounded=0;orthogonalLoop=1;jettySize=auto;html=1;endArrow=blockThin;endFill=1;" edge="1" parent="1">
          <mxGeometry relative="1" as="geometry">
            <mxPoint x="79.74" y="180" as="sourcePoint" />
            <mxPoint x="79.74" y="220" as="targetPoint" />
          </mxGeometry>
        </mxCell>
        <mxCell id="yHWT7IU4pxUufP5rQbJ7-55" value="Nein" style="edgeLabel;html=1;align=center;verticalAlign=middle;resizable=0;points=[];fontFamily=bahnschrift;fontSize=10;fontColor=default;labelBorderColor=none;labelBackgroundColor=default;fillColor=none;gradientColor=none;" vertex="1" connectable="0" parent="yHWT7IU4pxUufP5rQbJ7-54">
          <mxGeometry x="-0.5062" y="-1" relative="1" as="geometry">
            <mxPoint y="6" as="offset" />
          </mxGeometry>
        </mxCell>
        <mxCell id="yHWT7IU4pxUufP5rQbJ7-63" style="edgeStyle=orthogonalEdgeStyle;shape=connector;rounded=0;orthogonalLoop=1;jettySize=auto;html=1;strokeColor=default;align=center;verticalAlign=middle;fontFamily=Helvetica;fontSize=11;fontColor=default;labelBackgroundColor=default;endArrow=blockThin;endFill=1;" edge="1" parent="1" source="yHWT7IU4pxUufP5rQbJ7-60" target="yHWT7IU4pxUufP5rQbJ7-62">
          <mxGeometry relative="1" as="geometry" />
        </mxCell>
        <mxCell id="yHWT7IU4pxUufP5rQbJ7-60" value="Beutel-Masken-Beatmung" style="rounded=0;whiteSpace=wrap;html=1;align=center;verticalAlign=middle;fontFamily=&quot;Roboto&quot;, &quot;Helvetica Neue&quot;, sans-serif;fontSize=10;labelBorderColor=none;labelBackgroundColor=none;resizable=1;fillColor=#dae8fc;rotation=0;strokeColor=#6c8ebf;movable=1;rotatable=1;deletable=1;editable=1;locked=0;connectable=1;" vertex="1" parent="1">
          <mxGeometry x="40" y="220" width="160" height="30" as="geometry" />
        </mxCell>
        <mxCell id="yHWT7IU4pxUufP5rQbJ7-70" value="" style="edgeStyle=orthogonalEdgeStyle;shape=connector;rounded=0;orthogonalLoop=1;jettySize=auto;html=1;strokeColor=default;align=center;verticalAlign=middle;fontFamily=Helvetica;fontSize=11;fontColor=default;labelBackgroundColor=default;endArrow=blockThin;endFill=1;" edge="1" parent="1" source="yHWT7IU4pxUufP5rQbJ7-62" target="yHWT7IU4pxUufP5rQbJ7-68">
          <mxGeometry relative="1" as="geometry" />
        </mxCell>
        <UserObject label="Ventilation/Oxygenierung&lt;div&gt;möglich?&lt;/div&gt;" id="yHWT7IU4pxUufP5rQbJ7-62">
          <mxCell style="shape=hexagon;perimeter=hexagonPerimeter2;whiteSpace=wrap;html=1;fixedSize=1;fontFamily=&quot;Roboto&quot;, &quot;Helvetica Neue&quot;, sans-serif;fontSize=10;fontStyle=0;fillColor=#f5f5f5;fontColor=#333333;strokeColor=#666666;" vertex="1" parent="1">
            <mxGeometry x="40" y="270" width="160" height="40" as="geometry" />
          </mxCell>
        </UserObject>
        <mxCell id="yHWT7IU4pxUufP5rQbJ7-64" value="Beatmung fortsetzen bis Eintreffen NA" style="rounded=1;whiteSpace=wrap;html=1;fillColor=#000000;fontColor=#ffffff;strokeColor=none;fillStyle=auto;fontFamily=&quot;Roboto&quot;, &quot;Helvetica Neue&quot;, sans-serif; &quot;Helvetia Neue&quot;;glass=0;shadow=0;arcSize=50;fontStyle=1;fontSize=11;gradientColor=none;align=center;verticalAlign=middle;labelBorderColor=none;labelBackgroundColor=none;resizable=0;" vertex="1" parent="1">
          <mxGeometry y="700" width="360" height="40" as="geometry" />
        </mxCell>
        <mxCell id="yHWT7IU4pxUufP5rQbJ7-65" value="" style="edgeStyle=orthogonalEdgeStyle;rounded=0;orthogonalLoop=1;jettySize=auto;html=1;endArrow=blockThin;endFill=1;" edge="1" parent="1">
          <mxGeometry relative="1" as="geometry">
            <mxPoint x="119.74" y="310" as="sourcePoint" />
            <mxPoint x="119.74" y="350" as="targetPoint" />
          </mxGeometry>
        </mxCell>
        <mxCell id="yHWT7IU4pxUufP5rQbJ7-66" value="Nein" style="edgeLabel;html=1;align=center;verticalAlign=middle;resizable=0;points=[];fontFamily=bahnschrift;fontSize=10;fontColor=default;labelBorderColor=none;labelBackgroundColor=default;fillColor=none;gradientColor=none;" vertex="1" connectable="0" parent="yHWT7IU4pxUufP5rQbJ7-65">
          <mxGeometry x="-0.5062" y="-1" relative="1" as="geometry">
            <mxPoint y="6" as="offset" />
          </mxGeometry>
        </mxCell>
        <mxCell id="yHWT7IU4pxUufP5rQbJ7-69" style="edgeStyle=orthogonalEdgeStyle;shape=connector;rounded=0;orthogonalLoop=1;jettySize=auto;html=1;strokeColor=default;align=center;verticalAlign=middle;fontFamily=Helvetica;fontSize=11;fontColor=default;labelBackgroundColor=default;endArrow=blockThin;endFill=1;" edge="1" parent="1" source="yHWT7IU4pxUufP5rQbJ7-67" target="yHWT7IU4pxUufP5rQbJ7-68">
          <mxGeometry relative="1" as="geometry" />
        </mxCell>
        <mxCell id="yHWT7IU4pxUufP5rQbJ7-67" value="Optimierung der&lt;div&gt;Maskenbeatmung&lt;/div&gt;" style="rounded=0;whiteSpace=wrap;html=1;align=center;verticalAlign=middle;fontFamily=&quot;Roboto&quot;, &quot;Helvetica Neue&quot;, sans-serif;fontSize=10;labelBorderColor=none;labelBackgroundColor=none;resizable=1;fillColor=#dae8fc;rotation=0;strokeColor=#6c8ebf;movable=1;rotatable=1;deletable=1;editable=1;locked=0;connectable=1;fontColor=default;" vertex="1" parent="1">
          <mxGeometry x="40" y="350" width="160" height="30" as="geometry" />
        </mxCell>
        <mxCell id="yHWT7IU4pxUufP5rQbJ7-94" style="edgeStyle=orthogonalEdgeStyle;shape=connector;rounded=0;orthogonalLoop=1;jettySize=auto;html=1;strokeColor=default;align=center;verticalAlign=middle;fontFamily=Helvetica;fontSize=11;fontColor=default;labelBackgroundColor=default;endArrow=blockThin;endFill=1;" edge="1" parent="1" source="yHWT7IU4pxUufP5rQbJ7-68">
          <mxGeometry relative="1" as="geometry">
            <mxPoint x="240" y="420" as="targetPoint" />
          </mxGeometry>
        </mxCell>
        <mxCell id="yHWT7IU4pxUufP5rQbJ7-95" value="Ja" style="edgeLabel;html=1;align=center;verticalAlign=middle;resizable=0;points=[];fontFamily=Helvetica;fontSize=11;fontColor=default;labelBorderColor=none;labelBackgroundColor=default;fillColor=none;gradientColor=none;" vertex="1" connectable="0" parent="yHWT7IU4pxUufP5rQbJ7-94">
          <mxGeometry x="-0.0813" y="1" relative="1" as="geometry">
            <mxPoint y="1" as="offset" />
          </mxGeometry>
        </mxCell>
        <UserObject label="Maskenbeatmung möglich?" id="yHWT7IU4pxUufP5rQbJ7-68">
          <mxCell style="shape=hexagon;perimeter=hexagonPerimeter2;whiteSpace=wrap;html=1;fixedSize=1;fontFamily=&quot;Roboto&quot;, &quot;Helvetica Neue&quot;, sans-serif;fontSize=10;fontStyle=0;fillColor=#f5f5f5;fontColor=#333333;strokeColor=#666666;" vertex="1" parent="1">
            <mxGeometry x="40" y="400" width="160" height="40" as="geometry" />
          </mxCell>
        </UserObject>
        <mxCell id="yHWT7IU4pxUufP5rQbJ7-71" value="" style="edgeStyle=orthogonalEdgeStyle;rounded=0;orthogonalLoop=1;jettySize=auto;html=1;endArrow=blockThin;endFill=1;" edge="1" parent="1">
          <mxGeometry relative="1" as="geometry">
            <mxPoint x="120" y="440" as="sourcePoint" />
            <mxPoint x="120" y="480" as="targetPoint" />
          </mxGeometry>
        </mxCell>
        <mxCell id="yHWT7IU4pxUufP5rQbJ7-72" value="Nein" style="edgeLabel;html=1;align=center;verticalAlign=middle;resizable=0;points=[];fontFamily=bahnschrift;fontSize=10;fontColor=default;labelBorderColor=none;labelBackgroundColor=default;fillColor=none;gradientColor=none;" vertex="1" connectable="0" parent="yHWT7IU4pxUufP5rQbJ7-71">
          <mxGeometry x="-0.5062" y="-1" relative="1" as="geometry">
            <mxPoint y="6" as="offset" />
          </mxGeometry>
        </mxCell>
        <mxCell id="yHWT7IU4pxUufP5rQbJ7-74" style="edgeStyle=orthogonalEdgeStyle;shape=connector;rounded=0;orthogonalLoop=1;jettySize=auto;html=1;strokeColor=default;align=center;verticalAlign=middle;fontFamily=Helvetica;fontSize=11;fontColor=default;labelBackgroundColor=default;endArrow=blockThin;endFill=1;entryX=0;entryY=0.5;entryDx=0;entryDy=0;" edge="1" parent="1" source="yHWT7IU4pxUufP5rQbJ7-73" target="yHWT7IU4pxUufP5rQbJ7-67">
          <mxGeometry relative="1" as="geometry">
            <mxPoint x="10" y="370" as="targetPoint" />
            <Array as="points">
              <mxPoint x="20" y="500" />
              <mxPoint x="20" y="365" />
            </Array>
          </mxGeometry>
        </mxCell>
        <mxCell id="yHWT7IU4pxUufP5rQbJ7-75" value="Ja" style="edgeLabel;html=1;align=center;verticalAlign=middle;resizable=0;points=[];fontFamily=Helvetica;fontSize=11;fontColor=default;labelBorderColor=none;labelBackgroundColor=default;fillColor=none;gradientColor=none;" vertex="1" connectable="0" parent="yHWT7IU4pxUufP5rQbJ7-74">
          <mxGeometry x="-0.2457" relative="1" as="geometry">
            <mxPoint x="-1" y="3" as="offset" />
          </mxGeometry>
        </mxCell>
        <UserObject label="Schutzreflexe vorhanden?" id="yHWT7IU4pxUufP5rQbJ7-73">
          <mxCell style="shape=hexagon;perimeter=hexagonPerimeter2;whiteSpace=wrap;html=1;fixedSize=1;fontFamily=&quot;Roboto&quot;, &quot;Helvetica Neue&quot;, sans-serif;fontSize=10;fontStyle=0;fillColor=#f5f5f5;fontColor=#333333;strokeColor=#666666;" vertex="1" parent="1">
            <mxGeometry x="40" y="480" width="160" height="40" as="geometry" />
          </mxCell>
        </UserObject>
        <mxCell id="yHWT7IU4pxUufP5rQbJ7-76" value="" style="edgeStyle=orthogonalEdgeStyle;rounded=0;orthogonalLoop=1;jettySize=auto;html=1;endArrow=blockThin;endFill=1;" edge="1" parent="1">
          <mxGeometry relative="1" as="geometry">
            <mxPoint x="119.74" y="520" as="sourcePoint" />
            <mxPoint x="119.74" y="560" as="targetPoint" />
          </mxGeometry>
        </mxCell>
        <mxCell id="yHWT7IU4pxUufP5rQbJ7-77" value="Nein" style="edgeLabel;html=1;align=center;verticalAlign=middle;resizable=0;points=[];fontFamily=bahnschrift;fontSize=10;fontColor=default;labelBorderColor=none;labelBackgroundColor=default;fillColor=none;gradientColor=none;" vertex="1" connectable="0" parent="yHWT7IU4pxUufP5rQbJ7-76">
          <mxGeometry x="-0.5062" y="-1" relative="1" as="geometry">
            <mxPoint y="6" as="offset" />
          </mxGeometry>
        </mxCell>
        <mxCell id="yHWT7IU4pxUufP5rQbJ7-80" style="edgeStyle=orthogonalEdgeStyle;shape=connector;rounded=0;orthogonalLoop=1;jettySize=auto;html=1;strokeColor=default;align=center;verticalAlign=middle;fontFamily=Helvetica;fontSize=11;fontColor=default;labelBackgroundColor=default;endArrow=blockThin;endFill=1;" edge="1" parent="1" source="yHWT7IU4pxUufP5rQbJ7-78" target="yHWT7IU4pxUufP5rQbJ7-79">
          <mxGeometry relative="1" as="geometry" />
        </mxCell>
        <UserObject label="EGA-Anlage" link="/tabs/lib/list/bpr-list/bpr-ega" id="yHWT7IU4pxUufP5rQbJ7-78">
          <mxCell style="shape=process;whiteSpace=wrap;html=1;backgroundOutline=1;size=0.0625;fillColor=#f8cecc;strokeColor=#b85450;fontSize=10;glass=0;rounded=0;fontFamily=&quot;Roboto&quot;, &quot;Helvetica Neue&quot;, sans-serif;fontStyle=1;align=center;verticalAlign=middle;fontColor=default;labelBorderColor=none;labelBackgroundColor=none;resizable=0;" vertex="1" parent="1">
            <mxGeometry x="40" y="560" width="160" height="40" as="geometry" />
          </mxCell>
        </UserObject>
        <mxCell id="yHWT7IU4pxUufP5rQbJ7-81" style="edgeStyle=orthogonalEdgeStyle;shape=connector;rounded=0;orthogonalLoop=1;jettySize=auto;html=1;strokeColor=default;align=center;verticalAlign=middle;fontFamily=Helvetica;fontSize=11;fontColor=default;labelBackgroundColor=default;endArrow=blockThin;endFill=1;entryX=0;entryY=0.5;entryDx=0;entryDy=0;" edge="1" parent="1" source="yHWT7IU4pxUufP5rQbJ7-79" target="yHWT7IU4pxUufP5rQbJ7-60">
          <mxGeometry relative="1" as="geometry">
            <mxPoint y="240" as="targetPoint" />
            <Array as="points">
              <mxPoint x="10" y="640" />
              <mxPoint x="10" y="235" />
            </Array>
          </mxGeometry>
        </mxCell>
        <mxCell id="yHWT7IU4pxUufP5rQbJ7-82" value="Nein" style="edgeLabel;html=1;align=center;verticalAlign=middle;resizable=0;points=[];fontFamily=Helvetica;fontSize=11;fontColor=default;labelBorderColor=none;labelBackgroundColor=default;fillColor=none;gradientColor=none;" vertex="1" connectable="0" parent="yHWT7IU4pxUufP5rQbJ7-81">
          <mxGeometry x="-0.9017" y="-1" relative="1" as="geometry">
            <mxPoint x="8" as="offset" />
          </mxGeometry>
        </mxCell>
        <UserObject label="Ventilation/Oxygenierung&lt;div&gt;möglich?&lt;/div&gt;" id="yHWT7IU4pxUufP5rQbJ7-79">
          <mxCell style="shape=hexagon;perimeter=hexagonPerimeter2;whiteSpace=wrap;html=1;fixedSize=1;fontFamily=&quot;Roboto&quot;, &quot;Helvetica Neue&quot;, sans-serif;fontSize=10;fontStyle=0;fillColor=#f5f5f5;fontColor=#333333;strokeColor=#666666;" vertex="1" parent="1">
            <mxGeometry x="40" y="620" width="160" height="40" as="geometry" />
          </mxCell>
        </UserObject>
        <mxCell id="yHWT7IU4pxUufP5rQbJ7-86" value="" style="edgeStyle=orthogonalEdgeStyle;rounded=0;orthogonalLoop=1;jettySize=auto;html=1;endArrow=blockThin;endFill=1;" edge="1" parent="1">
          <mxGeometry relative="1" as="geometry">
            <mxPoint x="120" y="660" as="sourcePoint" />
            <mxPoint x="120" y="700" as="targetPoint" />
          </mxGeometry>
        </mxCell>
        <mxCell id="yHWT7IU4pxUufP5rQbJ7-87" value="Ja" style="edgeLabel;html=1;align=center;verticalAlign=middle;resizable=0;points=[];fontFamily=bahnschrift;fontSize=10;fontColor=default;labelBorderColor=none;labelBackgroundColor=default;fillColor=none;gradientColor=none;" vertex="1" connectable="0" parent="yHWT7IU4pxUufP5rQbJ7-86">
          <mxGeometry x="-0.5062" y="-1" relative="1" as="geometry">
            <mxPoint y="6" as="offset" />
          </mxGeometry>
        </mxCell>
        <mxCell id="yHWT7IU4pxUufP5rQbJ7-91" style="edgeStyle=orthogonalEdgeStyle;shape=connector;rounded=0;orthogonalLoop=1;jettySize=auto;html=1;entryX=0.667;entryY=0;entryDx=0;entryDy=0;entryPerimeter=0;strokeColor=default;align=center;verticalAlign=middle;fontFamily=Helvetica;fontSize=11;fontColor=default;labelBackgroundColor=default;endArrow=blockThin;endFill=1;" edge="1" parent="1" source="yHWT7IU4pxUufP5rQbJ7-62" target="yHWT7IU4pxUufP5rQbJ7-64">
          <mxGeometry relative="1" as="geometry">
            <Array as="points">
              <mxPoint x="240" y="290" />
            </Array>
          </mxGeometry>
        </mxCell>
        <mxCell id="yHWT7IU4pxUufP5rQbJ7-92" value="Ja" style="edgeLabel;html=1;align=center;verticalAlign=middle;resizable=0;points=[];fontFamily=Helvetica;fontSize=11;fontColor=default;labelBorderColor=none;labelBackgroundColor=default;fillColor=none;gradientColor=none;" vertex="1" connectable="0" parent="yHWT7IU4pxUufP5rQbJ7-91">
          <mxGeometry x="-0.9148" y="2" relative="1" as="geometry">
            <mxPoint x="-1" y="2" as="offset" />
          </mxGeometry>
        </mxCell>
      </root>
    </mxGraphModel>
  </diagram>
</mxfile>
